<svg width="678" height="294" viewBox="0 0 678 294" fill="none" xmlns="http://www.w3.org/2000/svg">
<path d="M0.812 16V15.3L3.724 12.094C4.29333 11.4687 4.75533 10.9507 5.11 10.54C5.474 10.1293 5.74467 9.756 5.922 9.42C6.09933 9.084 6.188 8.72 6.188 8.328C6.188 7.70267 6.006 7.222 5.642 6.886C5.278 6.55 4.79267 6.382 4.186 6.382C3.56067 6.382 3.03333 6.55933 2.604 6.914C2.184 7.26867 1.89933 7.76333 1.75 8.398L0.728 8.174C0.849333 7.60467 1.06867 7.11467 1.386 6.704C1.70333 6.29333 2.1 5.976 2.576 5.752C3.052 5.51867 3.584 5.402 4.172 5.402C4.79733 5.402 5.34333 5.528 5.81 5.78C6.27667 6.032 6.64067 6.37733 6.902 6.816C7.17267 7.25467 7.308 7.75867 7.308 8.328C7.308 8.72 7.224 9.098 7.056 9.462C6.89733 9.826 6.65467 10.218 6.328 10.638C6.00133 11.058 5.58133 11.548 5.068 12.108L2.422 15.02H7.588V16H0.812ZM13.5325 16.168C12.7112 16.168 11.9879 15.944 11.3625 15.496C10.7465 15.0387 10.2659 14.4087 9.92053 13.606C9.5752 12.794 9.40253 11.8513 9.40253 10.778C9.40253 9.70467 9.5752 8.76667 9.92053 7.964C10.2659 7.152 10.7465 6.522 11.3625 6.074C11.9785 5.626 12.6972 5.402 13.5185 5.402C14.3399 5.402 15.0585 5.626 15.6745 6.074C16.2905 6.522 16.7712 7.152 17.1165 7.964C17.4619 8.76667 17.6345 9.70467 17.6345 10.778C17.6345 11.8513 17.4619 12.794 17.1165 13.606C16.7805 14.418 16.3045 15.048 15.6885 15.496C15.0725 15.944 14.3539 16.168 13.5325 16.168ZM13.5325 15.118C14.1299 15.118 14.6525 14.936 15.1005 14.572C15.5485 14.208 15.8985 13.704 16.1505 13.06C16.4025 12.4067 16.5285 11.646 16.5285 10.778C16.5285 9.91 16.4025 9.154 16.1505 8.51C15.8985 7.85667 15.5485 7.35267 15.1005 6.998C14.6525 6.634 14.1252 6.452 13.5185 6.452C12.9212 6.452 12.3985 6.634 11.9505 6.998C11.5025 7.35267 11.1525 7.85667 10.9005 8.51C10.6485 9.154 10.5225 9.91 10.5225 10.778C10.5225 11.6367 10.6485 12.3927 10.9005 13.046C11.1525 13.6993 11.5025 14.208 11.9505 14.572C12.4079 14.936 12.9352 15.118 13.5325 15.118ZM19.7264 16V5.402H20.7764V12.822L20.3284 12.752L24.5424 8.496H25.9004L22.9604 11.506L26.1664 16H24.9064L21.8964 11.842L22.5684 11.898L20.4264 14.11L20.7764 13.242V16H19.7264Z" fill="#999999"/>
<path d="M2.534 71V61.55H0.574V60.57H3.654V71H2.534ZM9.42331 71.168C8.88198 71.168 8.37798 71.0747 7.91131 70.888C7.45398 70.7013 7.05265 70.4353 6.70731 70.09C6.36198 69.7447 6.10065 69.334 5.92331 68.858L6.77731 68.438C6.99198 68.9793 7.34198 69.4087 7.82731 69.726C8.32198 70.034 8.85398 70.188 9.42331 70.188C9.88065 70.188 10.2866 70.0807 10.6413 69.866C11.0053 69.6513 11.29 69.362 11.4953 68.998C11.7006 68.6247 11.8033 68.2093 11.8033 67.752C11.8033 67.276 11.696 66.856 11.4813 66.492C11.276 66.128 10.996 65.8433 10.6413 65.638C10.2866 65.4233 9.88531 65.316 9.43731 65.316C8.97998 65.316 8.55531 65.4233 8.16331 65.638C7.78065 65.8433 7.50065 66.0953 7.32331 66.394L6.44131 66.226L7.22531 60.57H12.5033V61.55H7.63131L8.06531 61.172L7.43531 65.624L7.00131 65.428C7.32798 65.0267 7.71065 64.742 8.14931 64.574C8.58798 64.3967 9.03598 64.308 9.49331 64.308C10.1653 64.308 10.758 64.4667 11.2713 64.784C11.7846 65.092 12.186 65.5073 12.4753 66.03C12.774 66.5433 12.9233 67.1173 12.9233 67.752C12.9233 68.396 12.7693 68.9793 12.4613 69.502C12.1626 70.0153 11.7473 70.4213 11.2153 70.72C10.6926 71.0187 10.0953 71.168 9.42331 71.168ZM14.9003 71V60.402H15.9503V67.822L15.5023 67.752L19.7163 63.496H21.0743L18.1343 66.506L21.3403 71H20.0803L17.0703 66.842L17.7423 66.898L15.6003 69.11L15.9503 68.242V71H14.9003Z" fill="#999999"/>
<path d="M2.534 126V116.55H0.574V115.57H3.654V126H2.534ZM10.3333 126.168C9.51198 126.168 8.78865 125.944 8.16331 125.496C7.54731 125.039 7.06665 124.409 6.72131 123.606C6.37598 122.794 6.20331 121.851 6.20331 120.778C6.20331 119.705 6.37598 118.767 6.72131 117.964C7.06665 117.152 7.54731 116.522 8.16331 116.074C8.77931 115.626 9.49798 115.402 10.3193 115.402C11.1406 115.402 11.8593 115.626 12.4753 116.074C13.0913 116.522 13.572 117.152 13.9173 117.964C14.2626 118.767 14.4353 119.705 14.4353 120.778C14.4353 121.851 14.2626 122.794 13.9173 123.606C13.5813 124.418 13.1053 125.048 12.4893 125.496C11.8733 125.944 11.1546 126.168 10.3333 126.168ZM10.3333 125.118C10.9306 125.118 11.4533 124.936 11.9013 124.572C12.3493 124.208 12.6993 123.704 12.9513 123.06C13.2033 122.407 13.3293 121.646 13.3293 120.778C13.3293 119.91 13.2033 119.154 12.9513 118.51C12.6993 117.857 12.3493 117.353 11.9013 116.998C11.4533 116.634 10.926 116.452 10.3193 116.452C9.72198 116.452 9.19931 116.634 8.75131 116.998C8.30331 117.353 7.95331 117.857 7.70131 118.51C7.44931 119.154 7.32331 119.91 7.32331 120.778C7.32331 121.637 7.44931 122.393 7.70131 123.046C7.95331 123.699 8.30331 124.208 8.75131 124.572C9.20865 124.936 9.73598 125.118 10.3333 125.118ZM16.5272 126V115.402H17.5772V122.822L17.1292 122.752L21.3432 118.496H22.7012L19.7612 121.506L22.9672 126H21.7072L18.6972 121.842L19.3692 121.898L17.2272 124.11L17.5772 123.242V126H16.5272Z" fill="#999999"/>
<path d="M4.228 181.168C3.68667 181.168 3.18267 181.075 2.716 180.888C2.25867 180.701 1.85733 180.435 1.512 180.09C1.16667 179.745 0.905333 179.334 0.728 178.858L1.582 178.438C1.79667 178.979 2.14667 179.409 2.632 179.726C3.12667 180.034 3.65867 180.188 4.228 180.188C4.68533 180.188 5.09133 180.081 5.446 179.866C5.81 179.651 6.09467 179.362 6.3 178.998C6.50533 178.625 6.608 178.209 6.608 177.752C6.608 177.276 6.50067 176.856 6.286 176.492C6.08067 176.128 5.80067 175.843 5.446 175.638C5.09133 175.423 4.69 175.316 4.242 175.316C3.78467 175.316 3.36 175.423 2.968 175.638C2.58533 175.843 2.30533 176.095 2.128 176.394L1.246 176.226L2.03 170.57H7.308V171.55H2.436L2.87 171.172L2.24 175.624L1.806 175.428C2.13267 175.027 2.51533 174.742 2.954 174.574C3.39267 174.397 3.84067 174.308 4.298 174.308C4.97 174.308 5.56267 174.467 6.076 174.784C6.58933 175.092 6.99067 175.507 7.28 176.03C7.57867 176.543 7.728 177.117 7.728 177.752C7.728 178.396 7.574 178.979 7.266 179.502C6.96733 180.015 6.552 180.421 6.02 180.72C5.49733 181.019 4.9 181.168 4.228 181.168ZM9.70495 181V170.402H10.755V177.822L10.307 177.752L14.521 173.496H15.879L12.939 176.506L16.145 181H14.885L11.875 176.842L12.547 176.898L10.405 179.11L10.755 178.242V181H9.70495Z" fill="#999999"/>
<path d="M2.534 236V226.55H0.574V225.57H3.654V236H2.534ZM6.27331 236V225.402H7.32331V232.822L6.87531 232.752L11.0893 228.496H12.4473L9.50731 231.506L12.7133 236H11.4533L8.44331 231.842L9.11531 231.898L6.97331 234.11L7.32331 233.242V236H6.27331Z" fill="#999999"/>
<path d="M5.138 291.168C4.31667 291.168 3.59333 290.944 2.968 290.496C2.352 290.039 1.87133 289.409 1.526 288.606C1.18067 287.794 1.008 286.851 1.008 285.778C1.008 284.705 1.18067 283.767 1.526 282.964C1.87133 282.152 2.352 281.522 2.968 281.074C3.584 280.626 4.30267 280.402 5.124 280.402C5.94533 280.402 6.664 280.626 7.28 281.074C7.896 281.522 8.37667 282.152 8.722 282.964C9.06733 283.767 9.24 284.705 9.24 285.778C9.24 286.851 9.06733 287.794 8.722 288.606C8.386 289.418 7.91 290.048 7.294 290.496C6.678 290.944 5.95933 291.168 5.138 291.168ZM5.138 290.118C5.73533 290.118 6.258 289.936 6.706 289.572C7.154 289.208 7.504 288.704 7.756 288.06C8.008 287.407 8.134 286.646 8.134 285.778C8.134 284.91 8.008 284.154 7.756 283.51C7.504 282.857 7.154 282.353 6.706 281.998C6.258 281.634 5.73067 281.452 5.124 281.452C4.52667 281.452 4.004 281.634 3.556 281.998C3.108 282.353 2.758 282.857 2.506 283.51C2.254 284.154 2.128 284.91 2.128 285.778C2.128 286.637 2.254 287.393 2.506 288.046C2.758 288.699 3.108 289.208 3.556 289.572C4.01333 289.936 4.54067 290.118 5.138 290.118ZM11.3319 291V280.402H12.3819V287.822L11.9339 287.752L16.1479 283.496H17.5059L14.5659 286.506L17.7719 291H16.5119L13.5019 286.842L14.1739 286.898L12.0319 289.11L12.3819 288.242V291H11.3319Z" fill="#999999"/>
<g opacity="0.6">
<path d="M45 258.846H677" stroke="#EBEBEB" stroke-width="1.2" stroke-dasharray="12 12"/>
<path d="M45 207.263H677" stroke="#EBEBEB" stroke-width="1.2" stroke-dasharray="12 12"/>
<path d="M45 155.698H677" stroke="#EBEBEB" stroke-width="1.2" stroke-dasharray="12 12"/>
<path d="M45 104.132H677" stroke="#EBEBEB" stroke-width="1.2" stroke-dasharray="12 12"/>
<path d="M45 52.5568H677" stroke="#EBEBEB" stroke-width="1.2" stroke-dasharray="12 12"/>
<path d="M45 1H677" stroke="#EBEBEB" stroke-width="1.2" stroke-dasharray="12 12"/>
</g>
<g opacity="0.8">
<path d="M45 87.6807L49.3869 84.0492C53.7738 80.4178 62.5477 73.1549 71.3215 81.1088C80.0953 89.0627 88.8692 112.233 97.643 112.396C106.417 112.558 115.191 89.7125 123.964 80.537C132.738 71.3616 141.512 75.8566 150.286 86.9729C159.06 98.0891 167.834 115.827 176.607 123.185C185.381 130.544 194.155 127.524 202.929 137.567C211.703 147.611 220.477 170.718 229.25 171.415C238.024 172.112 246.798 150.397 255.572 139.64C264.346 128.882 273.12 129.081 281.893 138.238C290.667 147.396 299.441 165.513 308.215 146.876C316.989 128.239 325.763 72.8473 334.536 62.9013C343.31 52.9554 352.084 88.4548 360.858 99.5588C369.632 110.663 378.406 97.3715 387.179 90.5587C395.953 83.7459 404.727 83.4116 413.501 83.6802C422.275 83.9488 431.049 84.8202 439.822 97.0121C448.596 109.204 457.37 132.716 466.144 143.895C474.918 155.074 483.692 153.919 492.465 127.861C501.239 101.803 510.013 50.8424 518.787 24.0499C527.561 -2.74263 536.335 -5.3671 545.108 11.9723C553.882 29.3118 562.656 66.6151 571.43 95.1494C580.204 123.684 588.978 143.449 597.751 131.947C606.525 120.446 615.299 77.6769 624.073 54.2755C632.847 30.874 641.621 26.8398 650.394 34.3922C659.168 41.9446 667.942 61.0836 672.329 70.6531L676.716 80.2226" stroke="#4745A4" stroke-width="2"/>
<path opacity="0.15" d="M49.3869 84.0492L45 87.6806V260H676.716V80.2226L672.329 70.6531C667.942 61.0836 659.168 41.9446 650.394 34.3922C641.621 26.8398 632.847 30.874 624.073 54.2755C615.299 77.6769 606.525 120.446 597.751 131.947C588.978 143.449 580.204 123.684 571.43 95.1494C562.656 66.6151 553.882 29.3117 545.108 11.9723C536.335 -5.36709 527.561 -2.74263 518.787 24.0499C510.013 50.8424 501.239 101.803 492.465 127.861C483.692 153.918 474.918 155.073 466.144 143.895C457.37 132.716 448.596 109.204 439.822 97.012C431.049 84.8202 422.275 83.9488 413.501 83.6802C404.727 83.4116 395.953 83.7458 387.179 90.5586C378.406 97.3714 369.632 110.663 360.858 99.5588C352.084 88.4547 343.31 52.9554 334.536 62.9013C325.763 72.8472 316.989 128.238 308.215 146.876C299.441 165.513 290.667 147.396 281.893 138.238C273.12 129.081 264.346 128.882 255.572 139.639C246.798 150.397 238.024 172.111 229.25 171.415C220.477 170.718 211.703 147.611 202.929 137.567C194.155 127.524 185.381 130.544 176.607 123.185C167.834 115.827 159.06 98.0891 150.286 86.9728C141.512 75.8566 132.738 71.3616 123.964 80.537C115.191 89.7124 106.417 112.558 97.643 112.396C88.8692 112.233 80.0953 89.0626 71.3215 81.1087C62.5477 73.1548 53.7738 80.4177 49.3869 84.0492Z" fill="url(#paint0_linear_5501_664)"/>
</g>
<path d="M677 127.616L669.978 139.335C662.956 151.054 648.911 174.491 634.867 176.015C620.822 177.538 606.778 157.149 592.733 152.486C578.689 147.823 564.644 158.886 550.6 165.181C536.556 171.476 522.511 173.002 508.467 173.858C494.422 174.715 480.378 174.902 466.333 178.391C452.289 181.881 438.244 188.674 424.2 178.382C410.156 168.09 396.111 140.713 382.067 126.218C368.022 111.723 353.978 110.109 339.933 121.514C325.889 132.92 311.844 157.344 297.8 164.115C283.756 170.885 269.711 160.001 255.667 161.127C241.622 162.252 227.578 175.387 213.533 167.248C199.489 159.109 185.444 129.695 171.4 127.135C157.356 124.575 143.311 148.868 129.267 159.692C115.222 170.517 101.178 167.872 87.1333 168.613C73.0889 169.353 59.0445 173.479 52.0222 175.542L45 177.605" stroke="#AD00FF" stroke-width="2"/>
<path opacity="0.2" d="M669.978 139.335L677 127.616V259.379H45V177.605L52.0223 175.542C59.0445 173.479 73.0889 169.353 87.1334 168.613C101.178 167.872 115.222 170.517 129.267 159.692C143.311 148.868 157.356 124.575 171.4 127.135C185.444 129.695 199.489 159.109 213.533 167.248C227.578 175.387 241.622 162.252 255.667 161.127C269.711 160.001 283.756 170.885 297.8 164.115C311.844 157.344 325.889 132.92 339.933 121.514C353.978 110.109 368.022 111.723 382.067 126.218C396.111 140.713 410.156 168.09 424.2 178.382C438.244 188.674 452.289 181.881 466.333 178.391C480.378 174.902 494.422 174.715 508.467 173.858C522.511 173.002 536.556 171.476 550.6 165.181C564.644 158.886 578.689 147.823 592.733 152.486C606.778 157.149 620.822 177.538 634.867 176.015C648.911 174.491 662.956 151.054 669.978 139.335Z" fill="url(#paint1_linear_5501_664)" stroke="black"/>
<path d="M45.77 291V289.88H46.33C46.8527 289.88 47.2633 289.726 47.562 289.418C47.8607 289.101 48.01 288.671 48.01 288.13V280.57H49.13V288.13C49.13 288.718 49.0133 289.227 48.78 289.656C48.556 290.085 48.234 290.417 47.814 290.65C47.394 290.883 46.8993 291 46.33 291H45.77ZM53.6074 291.168C53.1314 291.168 52.7067 291.079 52.3334 290.902C51.96 290.715 51.666 290.463 51.4514 290.146C51.2367 289.829 51.1294 289.465 51.1294 289.054C51.1294 288.662 51.2134 288.307 51.3814 287.99C51.5494 287.663 51.8107 287.388 52.1654 287.164C52.52 286.94 52.9727 286.781 53.5234 286.688L56.4634 286.198V287.15L53.7754 287.598C53.234 287.691 52.842 287.864 52.5994 288.116C52.366 288.368 52.2494 288.667 52.2494 289.012C52.2494 289.348 52.38 289.633 52.6414 289.866C52.912 290.099 53.2574 290.216 53.6774 290.216C54.1907 290.216 54.6387 290.109 55.0214 289.894C55.404 289.67 55.7027 289.371 55.9174 288.998C56.132 288.625 56.2394 288.209 56.2394 287.752V285.848C56.2394 285.4 56.076 285.036 55.7494 284.756C55.4227 284.476 54.998 284.336 54.4754 284.336C54.018 284.336 53.6167 284.453 53.2714 284.686C52.926 284.91 52.6694 285.204 52.5014 285.568L51.5494 285.05C51.6894 284.733 51.9087 284.443 52.2074 284.182C52.5154 283.921 52.8654 283.715 53.2574 283.566C53.6494 283.407 54.0554 283.328 54.4754 283.328C55.026 283.328 55.5114 283.435 55.9314 283.65C56.3607 283.865 56.692 284.163 56.9254 284.546C57.168 284.919 57.2894 285.353 57.2894 285.848V291H56.2394V289.502L56.3934 289.656C56.2627 289.936 56.0574 290.193 55.7774 290.426C55.5067 290.65 55.1847 290.832 54.8114 290.972C54.4474 291.103 54.046 291.168 53.6074 291.168ZM59.4491 291V283.496H60.4991V284.952L60.2611 284.896C60.4478 284.411 60.7511 284.028 61.1711 283.748C61.6004 283.468 62.0951 283.328 62.6551 283.328C63.1871 283.328 63.6631 283.449 64.0831 283.692C64.5124 283.935 64.8484 284.271 65.0911 284.7C65.3431 285.12 65.4691 285.596 65.4691 286.128V291H64.4191V286.534C64.4191 286.077 64.3351 285.689 64.1671 285.372C64.0084 285.055 63.7798 284.812 63.4811 284.644C63.1918 284.467 62.8558 284.378 62.4731 284.378C62.0904 284.378 61.7498 284.467 61.4511 284.644C61.1524 284.812 60.9191 285.059 60.7511 285.386C60.5831 285.703 60.4991 286.086 60.4991 286.534V291H59.4491Z" fill="#999999"/>
<path d="M144.732 291V280.57H151.172V281.62H145.852V285.246H150.752V286.296H145.852V291H144.732ZM155.855 291.168C155.155 291.168 154.521 291 153.951 290.664C153.391 290.319 152.948 289.847 152.621 289.25C152.295 288.653 152.131 287.976 152.131 287.22C152.131 286.464 152.29 285.797 152.607 285.218C152.925 284.63 153.354 284.168 153.895 283.832C154.446 283.496 155.062 283.328 155.743 283.328C156.285 283.328 156.765 283.431 157.185 283.636C157.615 283.832 157.979 284.103 158.277 284.448C158.576 284.784 158.805 285.167 158.963 285.596C159.122 286.016 159.201 286.45 159.201 286.898C159.201 286.991 159.197 287.099 159.187 287.22C159.178 287.332 159.164 287.449 159.145 287.57H152.803V286.59H158.543L158.039 287.01C158.123 286.497 158.063 286.039 157.857 285.638C157.661 285.227 157.377 284.905 157.003 284.672C156.63 284.429 156.21 284.308 155.743 284.308C155.277 284.308 154.843 284.429 154.441 284.672C154.049 284.915 153.741 285.255 153.517 285.694C153.293 286.123 153.205 286.637 153.251 287.234C153.205 287.831 153.298 288.354 153.531 288.802C153.774 289.241 154.101 289.581 154.511 289.824C154.931 290.067 155.379 290.188 155.855 290.188C156.406 290.188 156.868 290.057 157.241 289.796C157.615 289.535 157.918 289.208 158.151 288.816L159.047 289.292C158.898 289.628 158.669 289.941 158.361 290.23C158.053 290.51 157.685 290.739 157.255 290.916C156.835 291.084 156.369 291.168 155.855 291.168ZM162.918 291L159.992 283.496H161.168L163.632 290.076H163.254L165.732 283.496H166.922L163.968 291H162.918Z" fill="#999999"/>
<path d="M245.232 291V280.57H246.212L250.132 286.254H249.586L253.492 280.57H254.472V291H253.352V282.082L253.716 282.222L249.88 287.78H249.824L246.002 282.222L246.352 282.082V291H245.232ZM258.951 291.168C258.475 291.168 258.05 291.079 257.677 290.902C257.304 290.715 257.01 290.463 256.795 290.146C256.58 289.829 256.473 289.465 256.473 289.054C256.473 288.662 256.557 288.307 256.725 287.99C256.893 287.663 257.154 287.388 257.509 287.164C257.864 286.94 258.316 286.781 258.867 286.688L261.807 286.198V287.15L259.119 287.598C258.578 287.691 258.186 287.864 257.943 288.116C257.71 288.368 257.593 288.667 257.593 289.012C257.593 289.348 257.724 289.633 257.985 289.866C258.256 290.099 258.601 290.216 259.021 290.216C259.534 290.216 259.982 290.109 260.365 289.894C260.748 289.67 261.046 289.371 261.261 288.998C261.476 288.625 261.583 288.209 261.583 287.752V285.848C261.583 285.4 261.42 285.036 261.093 284.756C260.766 284.476 260.342 284.336 259.819 284.336C259.362 284.336 258.96 284.453 258.615 284.686C258.27 284.91 258.013 285.204 257.845 285.568L256.893 285.05C257.033 284.733 257.252 284.443 257.551 284.182C257.859 283.921 258.209 283.715 258.601 283.566C258.993 283.407 259.399 283.328 259.819 283.328C260.37 283.328 260.855 283.435 261.275 283.65C261.704 283.865 262.036 284.163 262.269 284.546C262.512 284.919 262.633 285.353 262.633 285.848V291H261.583V289.502L261.737 289.656C261.606 289.936 261.401 290.193 261.121 290.426C260.85 290.65 260.528 290.832 260.155 290.972C259.791 291.103 259.39 291.168 258.951 291.168ZM264.793 291V283.496H265.843V284.728L265.703 284.546C265.88 284.191 266.146 283.911 266.501 283.706C266.865 283.501 267.304 283.398 267.817 283.398H268.293V284.448H267.635C267.094 284.448 266.66 284.616 266.333 284.952C266.006 285.288 265.843 285.764 265.843 286.38V291H264.793Z" fill="#999999"/>
<path d="M345.654 291L349.462 280.57H350.666L354.474 291H353.298L352.402 288.452H347.74L346.83 291H345.654ZM348.104 287.402H352.01L349.896 281.41H350.232L348.104 287.402ZM359.505 291.168C358.861 291.168 358.277 291.023 357.755 290.734C357.241 290.435 356.854 290.015 356.593 289.474L356.761 289.32V291H355.711V280.402H356.761V285.176L356.593 284.882C356.891 284.406 357.288 284.028 357.783 283.748C358.287 283.468 358.861 283.328 359.505 283.328C360.214 283.328 360.844 283.501 361.395 283.846C361.955 284.182 362.393 284.644 362.711 285.232C363.037 285.82 363.201 286.492 363.201 287.248C363.201 287.995 363.037 288.667 362.711 289.264C362.393 289.852 361.955 290.319 361.395 290.664C360.844 291 360.214 291.168 359.505 291.168ZM359.449 290.118C359.953 290.118 360.401 289.992 360.793 289.74C361.194 289.488 361.507 289.147 361.731 288.718C361.964 288.279 362.081 287.789 362.081 287.248C362.081 286.697 361.964 286.207 361.731 285.778C361.507 285.349 361.194 285.008 360.793 284.756C360.401 284.504 359.953 284.378 359.449 284.378C358.945 284.378 358.487 284.504 358.077 284.756C357.675 285.008 357.353 285.353 357.111 285.792C356.877 286.221 356.761 286.707 356.761 287.248C356.761 287.789 356.877 288.279 357.111 288.718C357.353 289.147 357.675 289.488 358.077 289.74C358.487 289.992 358.945 290.118 359.449 290.118ZM365.049 291V283.496H366.099V284.728L365.959 284.546C366.136 284.191 366.402 283.911 366.757 283.706C367.121 283.501 367.559 283.398 368.073 283.398H368.549V284.448H367.891C367.349 284.448 366.915 284.616 366.589 284.952C366.262 285.288 366.099 285.764 366.099 286.38V291H365.049ZM369.779 291V283.496H370.829V291H369.779ZM369.779 282.11V280.57H370.829V282.11H369.779ZM372.978 291V280.402H374.028V291H372.978Z" fill="#999999"/>
<path d="M453.232 291V280.57H454.212L458.132 286.254H457.586L461.492 280.57H462.472V291H461.352V282.082L461.716 282.222L457.88 287.78H457.824L454.002 282.222L454.352 282.082V291H453.232ZM466.951 291.168C466.475 291.168 466.05 291.079 465.677 290.902C465.304 290.715 465.01 290.463 464.795 290.146C464.58 289.829 464.473 289.465 464.473 289.054C464.473 288.662 464.557 288.307 464.725 287.99C464.893 287.663 465.154 287.388 465.509 287.164C465.864 286.94 466.316 286.781 466.867 286.688L469.807 286.198V287.15L467.119 287.598C466.578 287.691 466.186 287.864 465.943 288.116C465.71 288.368 465.593 288.667 465.593 289.012C465.593 289.348 465.724 289.633 465.985 289.866C466.256 290.099 466.601 290.216 467.021 290.216C467.534 290.216 467.982 290.109 468.365 289.894C468.748 289.67 469.046 289.371 469.261 288.998C469.476 288.625 469.583 288.209 469.583 287.752V285.848C469.583 285.4 469.42 285.036 469.093 284.756C468.766 284.476 468.342 284.336 467.819 284.336C467.362 284.336 466.96 284.453 466.615 284.686C466.27 284.91 466.013 285.204 465.845 285.568L464.893 285.05C465.033 284.733 465.252 284.443 465.551 284.182C465.859 283.921 466.209 283.715 466.601 283.566C466.993 283.407 467.399 283.328 467.819 283.328C468.37 283.328 468.855 283.435 469.275 283.65C469.704 283.865 470.036 284.163 470.269 284.546C470.512 284.919 470.633 285.353 470.633 285.848V291H469.583V289.502L469.737 289.656C469.606 289.936 469.401 290.193 469.121 290.426C468.85 290.65 468.528 290.832 468.155 290.972C467.791 291.103 467.39 291.168 466.951 291.168ZM472.793 291V283.496H473.843V291H472.793ZM472.793 282.11V280.57H473.843V282.11H472.793ZM479.506 291.168C478.797 291.168 478.153 291 477.574 290.664C476.995 290.319 476.533 289.852 476.188 289.264C475.852 288.667 475.684 287.99 475.684 287.234C475.684 286.487 475.852 285.82 476.188 285.232C476.524 284.644 476.977 284.182 477.546 283.846C478.125 283.501 478.778 283.328 479.506 283.328C480.234 283.328 480.883 283.496 481.452 283.832C482.031 284.168 482.483 284.63 482.81 285.218C483.146 285.806 483.314 286.478 483.314 287.234C483.314 287.999 483.141 288.681 482.796 289.278C482.451 289.866 481.989 290.328 481.41 290.664C480.841 291 480.206 291.168 479.506 291.168ZM479.506 290.118C480.01 290.118 480.463 289.992 480.864 289.74C481.275 289.488 481.597 289.143 481.83 288.704C482.073 288.265 482.194 287.775 482.194 287.234C482.194 286.693 482.073 286.207 481.83 285.778C481.597 285.349 481.275 285.008 480.864 284.756C480.463 284.504 480.01 284.378 479.506 284.378C479.002 284.378 478.545 284.504 478.134 284.756C477.733 285.008 477.411 285.349 477.168 285.778C476.925 286.207 476.804 286.693 476.804 287.234C476.804 287.775 476.925 288.265 477.168 288.704C477.411 289.143 477.733 289.488 478.134 289.74C478.545 289.992 479.002 290.118 479.506 290.118Z" fill="#999999"/>
<path d="M562.27 291V289.88H562.83C563.353 289.88 563.763 289.726 564.062 289.418C564.361 289.101 564.51 288.671 564.51 288.13V280.57H565.63V288.13C565.63 288.718 565.513 289.227 565.28 289.656C565.056 290.085 564.734 290.417 564.314 290.65C563.894 290.883 563.399 291 562.83 291H562.27ZM570.597 291.168C570.075 291.168 569.599 291.047 569.169 290.804C568.74 290.552 568.399 290.207 568.147 289.768C567.905 289.32 567.783 288.807 567.783 288.228V283.496H568.833V288.102C568.833 288.503 568.913 288.858 569.071 289.166C569.239 289.465 569.468 289.698 569.757 289.866C570.056 290.034 570.397 290.118 570.779 290.118C571.162 290.118 571.503 290.034 571.801 289.866C572.1 289.689 572.333 289.441 572.501 289.124C572.669 288.797 572.753 288.41 572.753 287.962V283.496H573.803V291H572.753V289.544L572.991 289.6C572.814 290.085 572.511 290.468 572.081 290.748C571.652 291.028 571.157 291.168 570.597 291.168ZM575.963 291V283.496H577.013V284.952L576.775 284.896C576.961 284.411 577.265 284.028 577.685 283.748C578.114 283.468 578.609 283.328 579.169 283.328C579.701 283.328 580.177 283.449 580.597 283.692C581.026 283.935 581.362 284.271 581.605 284.7C581.857 285.12 581.983 285.596 581.983 286.128V291H580.933V286.534C580.933 286.077 580.849 285.689 580.681 285.372C580.522 285.055 580.293 284.812 579.995 284.644C579.705 284.467 579.369 284.378 578.987 284.378C578.604 284.378 578.263 284.467 577.965 284.644C577.666 284.812 577.433 285.059 577.265 285.386C577.097 285.703 577.013 286.086 577.013 286.534V291H575.963Z" fill="#999999"/>
<path d="M660.77 291V289.88H661.33C661.853 289.88 662.263 289.726 662.562 289.418C662.861 289.101 663.01 288.671 663.01 288.13V280.57H664.13V288.13C664.13 288.718 664.013 289.227 663.78 289.656C663.556 290.085 663.234 290.417 662.814 290.65C662.394 290.883 661.899 291 661.33 291H660.77ZM669.097 291.168C668.575 291.168 668.099 291.047 667.669 290.804C667.24 290.552 666.899 290.207 666.647 289.768C666.405 289.32 666.283 288.807 666.283 288.228V283.496H667.333V288.102C667.333 288.503 667.413 288.858 667.571 289.166C667.739 289.465 667.968 289.698 668.257 289.866C668.556 290.034 668.897 290.118 669.279 290.118C669.662 290.118 670.003 290.034 670.301 289.866C670.6 289.689 670.833 289.441 671.001 289.124C671.169 288.797 671.253 288.41 671.253 287.962V283.496H672.303V291H671.253V289.544L671.491 289.6C671.314 290.085 671.011 290.468 670.581 290.748C670.152 291.028 669.657 291.168 669.097 291.168ZM674.463 291V280.402H675.513V291H674.463Z" fill="#999999"/>
<defs>
<linearGradient id="paint0_linear_5501_664" x1="360.858" y1="1" x2="360.858" y2="260" gradientUnits="userSpaceOnUse">
<stop offset="0.141551" stop-color="#4745A4"/>
<stop offset="1" stop-color="#4745A4" stop-opacity="0"/>
</linearGradient>
<linearGradient id="paint1_linear_5501_664" x1="361" y1="114.009" x2="361" y2="259.379" gradientUnits="userSpaceOnUse">
<stop stop-color="#AD00FF"/>
<stop offset="1" stop-color="#AD00FF" stop-opacity="0"/>
</linearGradient>
</defs>
</svg>
